<?xml version="1.0" standalone="no"?><!DOCTYPE svg PUBLIC "-//W3C//DTD SVG 1.1//EN" "http://www.w3.org/Graphics/SVG/1.1/DTD/svg11.dtd"><svg t="1659495244198" class="icon" viewBox="0 0 1024 1024" version="1.1" xmlns="http://www.w3.org/2000/svg" p-id="2264" xmlns:xlink="http://www.w3.org/1999/xlink" width="200" height="200"><defs><style type="text/css">@font-face { font-family: feedback-iconfont; src: url("//at.alicdn.com/t/font_1031158_u69w8yhxdu.woff2?t=1630033759944") format("woff2"), url("//at.alicdn.com/t/font_1031158_u69w8yhxdu.woff?t=1630033759944") format("woff"), url("//at.alicdn.com/t/font_1031158_u69w8yhxdu.ttf?t=1630033759944") format("truetype"); }
</style></defs><path d="M415.930119 223.790358c0-52.980346 43.003528-95.983874 95.983874-95.983874s95.983874 43.003528 95.983874 95.983874-43.003528 95.983874-95.983874 95.983874S415.930119 276.770704 415.930119 223.790358z" p-id="2265"></path><path d="M415.930119 511.741979c0-52.980346 43.003528-95.983874 95.983874-95.983874s95.983874 43.003528 95.983874 95.983874-43.003528 95.983874-95.983874 95.983874S415.930119 564.722325 415.930119 511.741979z" p-id="2266"></path><path d="M415.930119 799.865614c0-52.980346 43.003528-95.983874 95.983874-95.983874s95.983874 43.003528 95.983874 95.983874-43.003528 95.983874-95.983874 95.983874S415.930119 852.673946 415.930119 799.865614z" p-id="2267"></path></svg>